<?xml version="1.0" encoding="UTF-8" standalone="no"?>
<!DOCTYPE svg PUBLIC "-//W3C//DTD SVG 1.1//EN" "http://www.w3.org/Graphics/SVG/1.1/DTD/svg11.dtd">
<svg width="100%" height="100%" viewBox="0 0 600 600" version="1.1" xmlns="http://www.w3.org/2000/svg" xmlns:xlink="http://www.w3.org/1999/xlink" xml:space="preserve" xmlns:serif="http://www.serif.com/" style="fill-rule:evenodd;clip-rule:evenodd;stroke-linecap:round;stroke-linejoin:round;stroke-miterlimit:1.5;">
    <g>
        <path d="M556.715,59.402L56.565,59.497L56.428,465.332L250.91,465.113L224.607,559.332L388.223,559.346L362.37,465.113L556.742,464.532L556.715,59.402ZM81.163,83.528L532.118,83.978L532.118,370.822L81.163,370.822L81.163,83.528ZM356.081,534.806L257.199,534.806L276.426,465.113L336.862,465.113L356.081,534.806ZM531.994,440.71L81.669,440.587L81.163,395.42L532.118,395.42L531.994,440.71Z" style="fill:#fff;fill-opacity:0.5;fill-rule:nonzero;"/>
        <g>
            <rect x="104.735" y="116.648" width="74.818" height="24.598" style="fill:#fff;fill-opacity:0.5;stroke:#fff;stroke-opacity:0.5;stroke-width:1px;"/>
            <rect x="104.735" y="280.631" width="74.818" height="24.598" style="fill:#fff;fill-opacity:0.5;stroke:#fff;stroke-opacity:0.5;stroke-width:1px;"/>
            <rect x="104.735" y="321.627" width="74.818" height="24.598" style="fill:#fff;fill-opacity:0.5;stroke:#fff;stroke-opacity:0.5;stroke-width:1px;"/>
            <rect x="195.951" y="321.627" width="122.988" height="24.598" style="fill:#fff;fill-opacity:0.5;stroke:#fff;stroke-opacity:0.5;stroke-width:1px;"/>
            <rect x="195.951" y="280.631" width="53.404" height="24.598" style="fill:#fff;fill-opacity:0.5;stroke:#fff;stroke-opacity:0.5;stroke-width:1px;"/>
            <rect x="257.445" y="280.631" width="141.732" height="24.598" style="fill:#fff;fill-opacity:0.5;stroke:#fff;stroke-opacity:0.5;stroke-width:1px;"/>
            <rect x="415.279" y="280.631" width="75.842" height="24.598" style="fill:#fff;fill-opacity:0.5;stroke:#fff;stroke-opacity:0.5;stroke-width:1px;"/>
            <rect x="296.391" y="239.635" width="96.34" height="24.598" style="fill:#fff;fill-opacity:0.5;stroke:#fff;stroke-opacity:0.5;stroke-width:1px;"/>
            <rect x="195.951" y="239.635" width="92.241" height="24.598" style="fill:#fff;fill-opacity:0.5;stroke:#fff;stroke-opacity:0.5;stroke-width:1px;"/>
            <rect x="195.896" y="198.17" width="152.765" height="24.598" style="fill:#fff;fill-opacity:0.5;stroke:#fff;stroke-opacity:0.5;stroke-width:1px;"/>
            <rect x="356.86" y="198.17" width="134.253" height="24.598" style="fill:#fff;fill-opacity:0.5;stroke:#fff;stroke-opacity:0.5;stroke-width:1px;"/>
            <rect x="394.781" y="157.644" width="96.332" height="24.598" style="fill:#fff;fill-opacity:0.5;stroke:#fff;stroke-opacity:0.5;stroke-width:1px;"/>
            <rect x="311.252" y="116.648" width="81.479" height="24.598" style="fill:#fff;fill-opacity:0.5;stroke:#fff;stroke-opacity:0.5;stroke-width:1px;"/>
            <rect x="195.896" y="116.648" width="91.983" height="24.598" style="fill:#fff;fill-opacity:0.5;stroke:#fff;stroke-opacity:0.5;stroke-width:1px;"/>
            <rect x="195.896" y="157.644" width="72.303" height="24.598" style="fill:#fff;fill-opacity:0.5;stroke:#fff;stroke-opacity:0.5;stroke-width:1px;"/>
            <rect x="277.174" y="157.644" width="101.209" height="24.598" style="fill:#fff;fill-opacity:0.5;stroke:#fff;stroke-opacity:0.5;stroke-width:1px;"/>
            <rect x="104.735" y="198.64" width="74.818" height="24.598" style="fill:#fff;fill-opacity:0.5;stroke:#fff;stroke-opacity:0.5;stroke-width:1px;"/>
            <rect x="104.735" y="157.749" width="74.818" height="24.598" style="fill:#fff;fill-opacity:0.5;stroke:#fff;stroke-opacity:0.5;stroke-width:1px;"/>
            <rect x="104.735" y="239.635" width="74.818" height="24.598" style="fill:#fff;fill-opacity:0.51;stroke:#fff;stroke-opacity:0.5;stroke-width:1px;"/>
        </g>
    </g>
</svg>
