<?xml version="1.0" encoding="UTF-8" standalone="no"?>
<!DOCTYPE svg PUBLIC "-//W3C//DTD SVG 1.1//EN" "http://www.w3.org/Graphics/SVG/1.1/DTD/svg11.dtd">
<svg width="100%" height="100%" viewBox="0 0 800 800" version="1.1" xmlns="http://www.w3.org/2000/svg" xmlns:xlink="http://www.w3.org/1999/xlink" xml:space="preserve" xmlns:serif="http://www.serif.com/" style="fill-rule:evenodd;clip-rule:evenodd;stroke-linejoin:round;stroke-miterlimit:2;">
    <g>
        <path d="M244.233,622.14L174.492,622.14L77.66,702.253L77.66,335.939L378.933,335.939L362.73,370.372L112.092,370.372L112.092,629.12L162.854,587.581L260.482,587.617L244.233,622.14ZM620.294,360.85L588.086,360.85L575.328,327.241L516.102,327.241L503.832,360.85L472.203,360.85L529.539,213.184L561.123,213.184L620.294,360.85ZM565.644,302.285L545.109,247.634L525.171,302.285L565.644,302.285ZM177.909,409.904L225.561,409.904L225.561,392.181L254.632,392.181L254.632,409.904L302.265,409.904L302.265,438.965L280.519,438.965C278.358,454.047 272.625,479.166 257.634,504.484C267.182,516.42 279.742,527.768 296.271,536.936L532.161,35.733L569.532,53.365L234.287,765.692L196.916,748.069L283.883,563.285C265.69,553.465 251.377,541.457 240.092,528.654C226.068,544.577 207.323,559.279 182.286,570.048L170.811,543.347C194.004,533.383 210.624,519.395 222.55,504.484C207.549,479.157 201.826,454.047 199.656,438.965L177.909,438.965L177.909,409.904ZM240.083,475.785C246.494,461.652 249.713,448.468 251.313,438.965L228.862,438.965C230.462,448.477 233.672,461.643 240.083,475.785ZM694.385,173.028L527.45,173.028L543.653,138.596L728.817,138.596L728.817,504.918L631.986,424.805L408.953,424.805L425.102,390.49L643.858,390.599L694.385,431.786L694.385,173.028Z" style="fill:#fff;fill-opacity:0.51;fill-rule:nonzero;"/>
    </g>
</svg>
