<?xml version="1.0" standalone="no"?>
<!DOCTYPE svg PUBLIC "-//W3C//DTD SVG 20010904//EN"
 "http://www.w3.org/TR/2001/REC-SVG-20010904/DTD/svg10.dtd">
<svg version="1.0" xmlns="http://www.w3.org/2000/svg"
 width="700.000000pt" height="700.000000pt" viewBox="0 0 700.000000 700.000000"
 preserveAspectRatio="xMidYMid meet">
<metadata>
Created by potrace 1.14, written by Peter Selinger 2001-2017
</metadata>
<g transform="translate(0.000000,700.000000) scale(0.100000,-0.100000)"
fill="#000000" stroke="none">
<path d="M1747 6624 c-1 -1 -36 -5 -77 -9 -41 -4 -77 -9 -80 -10 -3 -2 -25 -6
-49 -10 -24 -3 -82 -17 -129 -31 -540 -157 -960 -590 -1098 -1132 -50 -197
-50 -183 -49 -1952 1 -1271 4 -1674 14 -1735 55 -352 206 -651 450 -895 64
-63 155 -143 204 -177 173 -122 425 -231 597 -259 14 -2 36 -7 49 -10 13 -3
46 -8 75 -12 67 -9 3603 -9 3681 0 33 4 71 9 85 12 14 3 50 11 80 17 140 28
343 111 480 197 140 87 302 230 390 342 19 25 37 47 41 50 16 12 121 183 158
258 68 135 126 325 147 478 3 27 8 58 10 69 7 31 6 3323 -1 3380 -16 141 -80
399 -107 432 -6 7 -8 13 -5 13 9 0 -69 154 -115 227 -93 149 -194 266 -330
384 -62 54 -210 159 -223 159 -3 0 -22 10 -43 23 -123 76 -346 149 -562 183
-39 6 -3586 14 -3593 8z"/>
</g>
</svg>
